<?xml version="1.0" encoding="UTF-8"?>
<!DOCTYPE svg  PUBLIC '-//W3C//DTD SVG 1.1//EN'  'http://www.w3.org/Graphics/SVG/1.1/DTD/svg11.dtd'>
<svg enable-background="new 0 0 792 792" version="1.1" viewBox="0 0 792 792" xml:space="preserve" xmlns="http://www.w3.org/2000/svg">

	<path d="m755.52 536.8c0 35.953-25.617 79.998-56.981 97.882l-245.62 140.81c-31.392 17.858-82.629 17.858-114 0l-245.62-140.81c-31.194-17.884-56.814-61.946-56.814-97.882v-281.62c0-35.951 25.621-79.997 56.987-97.877l245.44-140.79c31.375-17.858 82.612-17.858 114 0l245.6 140.79c31.366 17.881 56.97 61.949 56.97 97.877v281.62h0.033z" fill="#3C0E81"/>
	<path d="m671.24 329.42c-31.852-152.41-200.1-249.13-347.82-199.94-96.594 26.718-180.17 118.64-189.6 209.92 7.425-7.997 13.055-16.449 20.788-21.917 18.383-12.983 36.57-27.399 57.053-35.945 24.071-10.051 48.566-0.187 62.819 19.408 14.348 19.728 8.66 38.915-3.265 56.687-9.925 14.788-22.92 27.533-32.634 42.435-16.757 25.716-35.176 51.037-47.219 78.973-21.261 49.333-4.852 125.31 28.966 156.62 5.472-18.764 9.381-38.828 17.126-57.289 16.753-39.933 59.985-58.237 93.908-41.58 36.029 17.692 47.834 64.833 25.812 103.07-4.66 8.101-9.315 16.204-17.536 30.503 14.226-2.456 22.066-2.444 28.762-5.212 29.095-12.01 50.689-32.762 62.705-61.652 8.06-19.387 11.87-40.494 19.052-60.297 10.449-28.788 37.242-42.159 64.096-33.348 28.89 9.485 42.603 32.771 32.766 63.448-5.996 18.71-18.467 35.351-28.084 52.893-2.857 5.189-5.892 10.279-9.623 16.77 91.224-19.425 202.52-160.61 161.93-313.55z" clip-rule="evenodd" fill="#F88122" fill-rule="evenodd"/>
	<path d="m671.24 329.42c-11.481 13.119-22.673 26.507-34.509 39.306-24.535 26.529-53.242 46.492-88.54 56.538-0.979-3.183-2.092-4.788-1.695-5.848 8.076-22.211 18.881-45.547-1.764-65.68-23.503-22.91-60-24.745-88.244-7.677-29.122 17.6-42.723 45.442-51.276 76.726-1.018 3.736-2.085 7.461-4.234 15.153-29.491-30.813-42.301-64.107-36.054-102.9 2.908-18.064 10.014-35.905 17.81-52.639 14.576-31.286 14.115-54.803-3.922-69.227-18.141-14.5-45.504-11.085-71.375 8.816-1.863 1.43-4.16 2.296-13.637 7.395 8.811-29.7 15.911-53.652 23.011-77.607 2.208-7.434 4.408-14.868 6.609-22.307 147.72-49.179 315.97 47.536 347.82 199.95z" clip-rule="evenodd" fill="#EF459E" fill-rule="evenodd"/>

</svg>
