<?xml version="1.0" encoding="utf-8"?>
<!-- Generator: Adobe Illustrator 16.0.4, SVG Export Plug-In . SVG Version: 6.00 Build 0)  -->
<!DOCTYPE svg PUBLIC "-//W3C//DTD SVG 1.1//EN" "http://www.w3.org/Graphics/SVG/1.1/DTD/svg11.dtd">
<svg version="1.1" id="Layer_1" xmlns="http://www.w3.org/2000/svg" xmlns:xlink="http://www.w3.org/1999/xlink" x="0px" y="0px"
	 width="864px" height="864px" viewBox="0 0 864 864" enable-background="new 0 0 864 864" xml:space="preserve">
<g>
	<path fill="#3C0E81" d="M827.464,586.878c0,39.548-28.18,87.997-62.68,107.668L494.608,849.44
		c-34.532,19.644-90.892,19.644-125.403,0L99.032,694.546c-34.314-19.671-62.496-68.141-62.496-107.668V277.096
		c0-39.545,28.182-87.995,62.686-107.663L369.206,14.561c34.511-19.645,90.871-19.645,125.403,0L764.76,169.433
		c34.503,19.668,62.667,68.142,62.667,107.663v309.782H827.464z"/>
	<path fill-rule="evenodd" clip-rule="evenodd" fill="#F88122" d="M734.759,358.763c44.64,168.228-77.777,323.533-178.126,344.899
		c4.105-7.139,7.442-12.737,10.584-18.446c10.58-19.297,24.297-37.6,30.895-58.182c10.819-33.742-4.265-59.356-36.045-69.79
		c-29.536-9.693-59.008,5.016-70.502,36.682c-7.901,21.781-12.093,45-20.957,66.324c-13.218,31.781-36.97,54.606-68.976,67.818
		c-7.362,3.044-15.987,3.03-31.636,5.731c9.043-15.729,14.163-24.642,19.291-33.552c24.223-42.062,11.236-93.917-28.394-113.379
		c-37.315-18.321-84.869,1.813-103.297,45.738c-8.52,20.307-12.821,42.377-18.839,63.019
		c-37.198-34.447-55.248-118.02-31.862-172.284c13.247-30.728,33.509-58.581,51.939-86.868
		c10.687-16.392,24.981-30.411,35.898-46.678c13.118-19.547,19.374-40.653,3.591-62.354c-15.678-21.554-42.622-32.405-69.101-21.349
		c-22.531,9.401-42.538,25.259-62.758,39.541c-8.507,6.014-14.699,15.312-22.866,24.107
		C153.98,269.331,245.91,168.214,352.162,138.826c-2.422,8.182-4.842,16.36-7.271,24.537c-7.811,26.35-15.621,52.697-25.312,85.366
		c10.425-5.607,12.951-6.561,15-8.134c28.458-21.891,58.558-25.647,78.513-9.697c19.841,15.866,20.35,41.734,4.315,76.148
		c-8.577,18.407-16.393,38.032-19.591,57.902c-6.871,42.668,7.219,79.289,39.658,113.185c2.366-8.462,3.54-12.559,4.658-16.668
		c9.409-34.411,24.37-65.037,56.403-84.397c31.068-18.775,71.214-16.756,97.067,8.445c22.708,22.145,10.825,47.814,1.939,72.245
		c-0.436,1.167,0.788,2.934,1.865,6.435c38.829-11.051,70.406-33.01,97.395-62.192C709.819,387.92,722.132,373.194,734.759,358.763z
		"/>
	<path fill-rule="evenodd" clip-rule="evenodd" fill="#EF459E" d="M734.759,358.763c-12.627,14.431-24.939,29.157-37.957,43.236
		c-26.988,29.182-58.565,51.141-97.395,62.192c-1.077-3.501-2.301-5.268-1.865-6.435c8.886-24.431,20.769-50.101-1.939-72.245
		c-25.854-25.201-65.999-27.22-97.067-8.445c-32.033,19.36-46.994,49.986-56.403,84.397c-1.118,4.109-2.292,8.206-4.658,16.668
		c-32.439-33.896-46.529-70.517-39.658-113.185c3.198-19.87,11.015-39.495,19.591-57.902c16.035-34.414,15.526-60.283-4.315-76.148
		c-19.955-15.95-50.055-12.194-78.513,9.697c-2.049,1.574-4.575,2.527-15,8.134c9.691-32.669,17.501-59.017,25.312-85.366
		c2.429-8.177,4.848-16.354,7.271-24.537C514.654,84.726,699.723,191.11,734.759,358.763z"/>
</g>
</svg>
